<mxfile host="app.diagrams.net" agent="Mozilla/5.0 (X11; Linux x86_64) AppleWebKit/537.36 (KHTML, like Gecko) Chrome/131.0.0.0 Safari/537.36" version="26.0.4">
  <diagram name="Page-1" id="Q8IJw4u9Q7XCjHGlNCxN">
    <mxGraphModel dx="1263" dy="709" grid="1" gridSize="10" guides="1" tooltips="1" connect="1" arrows="1" fold="1" page="1" pageScale="1" pageWidth="1200" pageHeight="1600" math="0" shadow="0">
      <root>
        <mxCell id="0" />
        <mxCell id="1" parent="0" />
        <mxCell id="-rGbMX5MQ7BEVkvJqkTG-1" value="&lt;h3 data-pm-slice=&quot;1 1 []&quot;&gt;&lt;span style=&quot;font-weight: normal;&quot;&gt;&lt;font style=&quot;font-size: 12px;&quot;&gt;Visiteur&lt;/font&gt;&lt;/span&gt;&lt;/h3&gt;" style="shape=umlActor;verticalLabelPosition=bottom;verticalAlign=top;html=1;outlineConnect=0;" vertex="1" parent="1">
          <mxGeometry x="140" y="300" width="20" height="40" as="geometry" />
        </mxCell>
        <mxCell id="-rGbMX5MQ7BEVkvJqkTG-3" value="&lt;h3 data-pm-slice=&quot;1 1 []&quot;&gt;&lt;span style=&quot;font-weight: normal;&quot;&gt;&lt;font style=&quot;font-size: 12px;&quot;&gt;Étudiant&lt;/font&gt;&lt;/span&gt;&lt;/h3&gt;" style="shape=umlActor;verticalLabelPosition=bottom;verticalAlign=top;html=1;outlineConnect=0;" vertex="1" parent="1">
          <mxGeometry x="140" y="550" width="20" height="40" as="geometry" />
        </mxCell>
        <mxCell id="-rGbMX5MQ7BEVkvJqkTG-6" value="" style="rounded=0;whiteSpace=wrap;html=1;" vertex="1" parent="1">
          <mxGeometry x="220" y="200" width="610" height="1050" as="geometry" />
        </mxCell>
        <mxCell id="-rGbMX5MQ7BEVkvJqkTG-12" value="&lt;p data-pm-slice=&quot;1 1 [&amp;quot;list&amp;quot;,{&amp;quot;spread&amp;quot;:false,&amp;quot;start&amp;quot;:365,&amp;quot;end&amp;quot;:600},&amp;quot;regular_list_item&amp;quot;,{&amp;quot;start&amp;quot;:531,&amp;quot;end&amp;quot;:600}]&quot;&gt;&lt;font style=&quot;font-size: 8px;&quot;&gt;Créer un compte&lt;/font&gt;&lt;/p&gt;" style="ellipse;whiteSpace=wrap;html=1;" vertex="1" parent="1">
          <mxGeometry x="290" y="300" width="110" height="40" as="geometry" />
        </mxCell>
        <mxCell id="-rGbMX5MQ7BEVkvJqkTG-13" value="" style="endArrow=none;html=1;rounded=0;exitX=0.5;exitY=0.5;exitDx=0;exitDy=0;exitPerimeter=0;entryX=0;entryY=0.5;entryDx=0;entryDy=0;" edge="1" parent="1" source="-rGbMX5MQ7BEVkvJqkTG-72" target="-rGbMX5MQ7BEVkvJqkTG-73">
          <mxGeometry width="50" height="50" relative="1" as="geometry">
            <mxPoint x="130" y="440" as="sourcePoint" />
            <mxPoint x="270" y="380" as="targetPoint" />
          </mxGeometry>
        </mxCell>
        <mxCell id="-rGbMX5MQ7BEVkvJqkTG-15" value="" style="endArrow=none;html=1;rounded=0;exitX=0.5;exitY=0.5;exitDx=0;exitDy=0;exitPerimeter=0;entryX=0;entryY=0.5;entryDx=0;entryDy=0;" edge="1" parent="1" source="-rGbMX5MQ7BEVkvJqkTG-1" target="-rGbMX5MQ7BEVkvJqkTG-12">
          <mxGeometry width="50" height="50" relative="1" as="geometry">
            <mxPoint x="160" y="370" as="sourcePoint" />
            <mxPoint x="300" y="370" as="targetPoint" />
          </mxGeometry>
        </mxCell>
        <mxCell id="-rGbMX5MQ7BEVkvJqkTG-18" value="&lt;p data-pm-slice=&quot;1 1 [&amp;quot;list&amp;quot;,{&amp;quot;spread&amp;quot;:false,&amp;quot;start&amp;quot;:622,&amp;quot;end&amp;quot;:1026},&amp;quot;regular_list_item&amp;quot;,{&amp;quot;start&amp;quot;:806,&amp;quot;end&amp;quot;:906}]&quot;&gt;&lt;font style=&quot;font-size: 8px;&quot;&gt;Consulter les détails d’un cours&lt;/font&gt;&lt;/p&gt;" style="ellipse;whiteSpace=wrap;html=1;" vertex="1" parent="1">
          <mxGeometry x="470" y="550" width="110" height="40" as="geometry" />
        </mxCell>
        <mxCell id="-rGbMX5MQ7BEVkvJqkTG-19" value="&lt;p data-pm-slice=&quot;1 1 [&amp;quot;list&amp;quot;,{&amp;quot;spread&amp;quot;:false,&amp;quot;start&amp;quot;:622,&amp;quot;end&amp;quot;:1026},&amp;quot;regular_list_item&amp;quot;,{&amp;quot;start&amp;quot;:907,&amp;quot;end&amp;quot;:956}]&quot;&gt;&lt;font style=&quot;font-size: 8px;&quot;&gt;S’inscrire à un cours&lt;/font&gt;&lt;/p&gt;" style="ellipse;whiteSpace=wrap;html=1;" vertex="1" parent="1">
          <mxGeometry x="290" y="550" width="110" height="40" as="geometry" />
        </mxCell>
        <mxCell id="-rGbMX5MQ7BEVkvJqkTG-23" value="" style="endArrow=none;html=1;rounded=0;entryX=0;entryY=0.5;entryDx=0;entryDy=0;exitX=0.5;exitY=0.5;exitDx=0;exitDy=0;exitPerimeter=0;" edge="1" parent="1" source="-rGbMX5MQ7BEVkvJqkTG-3" target="-rGbMX5MQ7BEVkvJqkTG-19">
          <mxGeometry width="50" height="50" relative="1" as="geometry">
            <mxPoint x="160" y="550" as="sourcePoint" />
            <mxPoint x="300" y="580" as="targetPoint" />
          </mxGeometry>
        </mxCell>
        <mxCell id="-rGbMX5MQ7BEVkvJqkTG-24" value="&lt;p data-pm-slice=&quot;1 1 [&amp;quot;list&amp;quot;,{&amp;quot;spread&amp;quot;:false,&amp;quot;start&amp;quot;:365,&amp;quot;end&amp;quot;:600},&amp;quot;regular_list_item&amp;quot;,{&amp;quot;start&amp;quot;:464,&amp;quot;end&amp;quot;:530}]&quot;&gt;&lt;font style=&quot;font-size: 8px;&quot;&gt; filtre avancé&lt;/font&gt;&lt;/p&gt;" style="ellipse;whiteSpace=wrap;html=1;" vertex="1" parent="1">
          <mxGeometry x="520" y="300" width="110" height="40" as="geometry" />
        </mxCell>
        <mxCell id="-rGbMX5MQ7BEVkvJqkTG-25" value="extande" style="endArrow=open;endSize=12;dashed=1;html=1;rounded=0;exitX=1;exitY=0.5;exitDx=0;exitDy=0;entryX=0;entryY=0.5;entryDx=0;entryDy=0;" edge="1" parent="1" target="-rGbMX5MQ7BEVkvJqkTG-24">
          <mxGeometry width="160" relative="1" as="geometry">
            <mxPoint x="400" y="320" as="sourcePoint" />
            <mxPoint x="730" y="460" as="targetPoint" />
          </mxGeometry>
        </mxCell>
        <mxCell id="-rGbMX5MQ7BEVkvJqkTG-26" value="&lt;h3 data-pm-slice=&quot;1 1 []&quot;&gt;&lt;span style=&quot;font-weight: normal;&quot;&gt;&lt;font style=&quot;font-size: 12px;&quot;&gt;Enseignant&lt;/font&gt;&lt;/span&gt;&lt;/h3&gt;" style="shape=umlActor;verticalLabelPosition=bottom;verticalAlign=top;html=1;outlineConnect=0;" vertex="1" parent="1">
          <mxGeometry x="140" y="760" width="20" height="40" as="geometry" />
        </mxCell>
        <mxCell id="-rGbMX5MQ7BEVkvJqkTG-28" value="&lt;p data-pm-slice=&quot;1 1 [&amp;quot;list&amp;quot;,{&amp;quot;spread&amp;quot;:false,&amp;quot;start&amp;quot;:622,&amp;quot;end&amp;quot;:1026},&amp;quot;regular_list_item&amp;quot;,{&amp;quot;start&amp;quot;:745,&amp;quot;end&amp;quot;:805}]&quot;&gt;&lt;font style=&quot;font-size: 8px;&quot;&gt;ajouter un cours&lt;/font&gt;&lt;/p&gt;" style="ellipse;whiteSpace=wrap;html=1;" vertex="1" parent="1">
          <mxGeometry x="310" y="640" width="110" height="40" as="geometry" />
        </mxCell>
        <mxCell id="-rGbMX5MQ7BEVkvJqkTG-29" value="&lt;p data-pm-slice=&quot;1 1 [&amp;quot;list&amp;quot;,{&amp;quot;spread&amp;quot;:false,&amp;quot;start&amp;quot;:622,&amp;quot;end&amp;quot;:1026},&amp;quot;regular_list_item&amp;quot;,{&amp;quot;start&amp;quot;:806,&amp;quot;end&amp;quot;:906}]&quot;&gt;&lt;font style=&quot;font-size: 8px;&quot;&gt;Gérer ces cours&lt;/font&gt;&lt;/p&gt;" style="ellipse;whiteSpace=wrap;html=1;" vertex="1" parent="1">
          <mxGeometry x="310" y="705" width="110" height="40" as="geometry" />
        </mxCell>
        <mxCell id="-rGbMX5MQ7BEVkvJqkTG-30" value="&lt;p data-pm-slice=&quot;1 1 [&amp;quot;list&amp;quot;,{&amp;quot;spread&amp;quot;:false,&amp;quot;start&amp;quot;:622,&amp;quot;end&amp;quot;:1026},&amp;quot;regular_list_item&amp;quot;,{&amp;quot;start&amp;quot;:907,&amp;quot;end&amp;quot;:956}]&quot;&gt;&lt;font style=&quot;font-size: 8px;&quot;&gt;consulter les statistiques&lt;/font&gt;&lt;/p&gt;" style="ellipse;whiteSpace=wrap;html=1;" vertex="1" parent="1">
          <mxGeometry x="310" y="910" width="110" height="40" as="geometry" />
        </mxCell>
        <mxCell id="-rGbMX5MQ7BEVkvJqkTG-32" value="" style="endArrow=none;html=1;rounded=0;entryX=0;entryY=0.5;entryDx=0;entryDy=0;exitX=0.5;exitY=0.5;exitDx=0;exitDy=0;exitPerimeter=0;" edge="1" parent="1" source="-rGbMX5MQ7BEVkvJqkTG-26" target="-rGbMX5MQ7BEVkvJqkTG-28">
          <mxGeometry width="50" height="50" relative="1" as="geometry">
            <mxPoint x="220" y="750" as="sourcePoint" />
            <mxPoint x="360" y="660" as="targetPoint" />
          </mxGeometry>
        </mxCell>
        <mxCell id="-rGbMX5MQ7BEVkvJqkTG-33" value="" style="endArrow=none;html=1;rounded=0;entryX=0;entryY=0.5;entryDx=0;entryDy=0;exitX=0.5;exitY=0.5;exitDx=0;exitDy=0;exitPerimeter=0;" edge="1" parent="1" source="-rGbMX5MQ7BEVkvJqkTG-26" target="-rGbMX5MQ7BEVkvJqkTG-29">
          <mxGeometry width="50" height="50" relative="1" as="geometry">
            <mxPoint x="220" y="750" as="sourcePoint" />
            <mxPoint x="360" y="720" as="targetPoint" />
          </mxGeometry>
        </mxCell>
        <mxCell id="-rGbMX5MQ7BEVkvJqkTG-34" value="" style="endArrow=none;html=1;rounded=0;entryX=0;entryY=0.5;entryDx=0;entryDy=0;exitX=0.5;exitY=0.5;exitDx=0;exitDy=0;exitPerimeter=0;" edge="1" parent="1" source="-rGbMX5MQ7BEVkvJqkTG-26" target="-rGbMX5MQ7BEVkvJqkTG-30">
          <mxGeometry width="50" height="50" relative="1" as="geometry">
            <mxPoint x="220" y="750" as="sourcePoint" />
            <mxPoint x="360" y="780" as="targetPoint" />
          </mxGeometry>
        </mxCell>
        <mxCell id="-rGbMX5MQ7BEVkvJqkTG-35" value="&lt;h3 data-pm-slice=&quot;1 1 []&quot;&gt;&lt;span style=&quot;font-weight: normal;&quot;&gt;&lt;font style=&quot;font-size: 12px;&quot;&gt;Enseignant&lt;/font&gt;&lt;/span&gt;&lt;/h3&gt;" style="shape=umlActor;verticalLabelPosition=bottom;verticalAlign=top;html=1;outlineConnect=0;" vertex="1" parent="1">
          <mxGeometry x="140" y="1070" width="20" height="40" as="geometry" />
        </mxCell>
        <mxCell id="-rGbMX5MQ7BEVkvJqkTG-37" value="&lt;p data-pm-slice=&quot;1 1 [&amp;quot;list&amp;quot;,{&amp;quot;spread&amp;quot;:false,&amp;quot;start&amp;quot;:622,&amp;quot;end&amp;quot;:1026},&amp;quot;regular_list_item&amp;quot;,{&amp;quot;start&amp;quot;:745,&amp;quot;end&amp;quot;:805}]&quot;&gt;&lt;font style=&quot;font-size: 8px;&quot;&gt;valider les comptes enseignants&lt;/font&gt;&lt;/p&gt;" style="ellipse;whiteSpace=wrap;html=1;" vertex="1" parent="1">
          <mxGeometry x="560" y="970" width="110" height="40" as="geometry" />
        </mxCell>
        <mxCell id="-rGbMX5MQ7BEVkvJqkTG-38" value="&lt;p data-pm-slice=&quot;1 1 [&amp;quot;list&amp;quot;,{&amp;quot;spread&amp;quot;:false,&amp;quot;start&amp;quot;:622,&amp;quot;end&amp;quot;:1026},&amp;quot;regular_list_item&amp;quot;,{&amp;quot;start&amp;quot;:806,&amp;quot;end&amp;quot;:906}]&quot;&gt;&lt;font style=&quot;font-size: 8px;&quot;&gt;Gérer les utilisteurs&lt;/font&gt;&lt;/p&gt;" style="ellipse;whiteSpace=wrap;html=1;" vertex="1" parent="1">
          <mxGeometry x="320" y="970" width="110" height="40" as="geometry" />
        </mxCell>
        <mxCell id="-rGbMX5MQ7BEVkvJqkTG-39" value="&lt;p data-pm-slice=&quot;1 1 [&amp;quot;list&amp;quot;,{&amp;quot;spread&amp;quot;:false,&amp;quot;start&amp;quot;:622,&amp;quot;end&amp;quot;:1026},&amp;quot;regular_list_item&amp;quot;,{&amp;quot;start&amp;quot;:907,&amp;quot;end&amp;quot;:956}]&quot;&gt;&lt;font style=&quot;font-size: 8px;&quot;&gt;consulter les statistique globale&lt;/font&gt;&lt;/p&gt;" style="ellipse;whiteSpace=wrap;html=1;" vertex="1" parent="1">
          <mxGeometry x="320" y="1200" width="110" height="40" as="geometry" />
        </mxCell>
        <mxCell id="-rGbMX5MQ7BEVkvJqkTG-42" value="" style="endArrow=none;html=1;rounded=0;entryX=0;entryY=0.5;entryDx=0;entryDy=0;exitX=0.5;exitY=0.5;exitDx=0;exitDy=0;exitPerimeter=0;" edge="1" parent="1" source="-rGbMX5MQ7BEVkvJqkTG-35" target="-rGbMX5MQ7BEVkvJqkTG-38">
          <mxGeometry width="50" height="50" relative="1" as="geometry">
            <mxPoint x="220" y="1060" as="sourcePoint" />
            <mxPoint x="360" y="1030" as="targetPoint" />
          </mxGeometry>
        </mxCell>
        <mxCell id="-rGbMX5MQ7BEVkvJqkTG-43" value="" style="endArrow=none;html=1;rounded=0;entryX=0;entryY=0.5;entryDx=0;entryDy=0;exitX=0.5;exitY=0.5;exitDx=0;exitDy=0;exitPerimeter=0;" edge="1" parent="1" source="-rGbMX5MQ7BEVkvJqkTG-35" target="-rGbMX5MQ7BEVkvJqkTG-39">
          <mxGeometry width="50" height="50" relative="1" as="geometry">
            <mxPoint x="220" y="1060" as="sourcePoint" />
            <mxPoint x="360" y="1090" as="targetPoint" />
          </mxGeometry>
        </mxCell>
        <mxCell id="-rGbMX5MQ7BEVkvJqkTG-44" value="&lt;p data-pm-slice=&quot;1 1 [&amp;quot;list&amp;quot;,{&amp;quot;spread&amp;quot;:false,&amp;quot;start&amp;quot;:622,&amp;quot;end&amp;quot;:1026},&amp;quot;regular_list_item&amp;quot;,{&amp;quot;start&amp;quot;:907,&amp;quot;end&amp;quot;:956}]&quot;&gt;&lt;font style=&quot;font-size: 8px;&quot;&gt;Gerer les contenus&lt;/font&gt;&lt;/p&gt;" style="ellipse;whiteSpace=wrap;html=1;" vertex="1" parent="1">
          <mxGeometry x="320" y="1030" width="110" height="40" as="geometry" />
        </mxCell>
        <mxCell id="-rGbMX5MQ7BEVkvJqkTG-45" value="" style="endArrow=none;html=1;rounded=0;entryX=0;entryY=0.5;entryDx=0;entryDy=0;exitX=0.5;exitY=0.5;exitDx=0;exitDy=0;exitPerimeter=0;" edge="1" parent="1" source="-rGbMX5MQ7BEVkvJqkTG-35" target="-rGbMX5MQ7BEVkvJqkTG-44">
          <mxGeometry width="50" height="50" relative="1" as="geometry">
            <mxPoint x="160" y="1100" as="sourcePoint" />
            <mxPoint x="300" y="1220" as="targetPoint" />
          </mxGeometry>
        </mxCell>
        <mxCell id="-rGbMX5MQ7BEVkvJqkTG-46" value="include" style="endArrow=open;endSize=12;dashed=1;html=1;rounded=0;entryX=0;entryY=0.5;entryDx=0;entryDy=0;" edge="1" parent="1" source="-rGbMX5MQ7BEVkvJqkTG-19" target="-rGbMX5MQ7BEVkvJqkTG-18">
          <mxGeometry width="160" relative="1" as="geometry">
            <mxPoint x="400" y="639.71" as="sourcePoint" />
            <mxPoint x="520" y="639.71" as="targetPoint" />
          </mxGeometry>
        </mxCell>
        <mxCell id="-rGbMX5MQ7BEVkvJqkTG-47" value="include" style="endArrow=open;endSize=12;dashed=1;html=1;rounded=0;exitX=1;exitY=0.5;exitDx=0;exitDy=0;entryX=0;entryY=0.5;entryDx=0;entryDy=0;" edge="1" parent="1" source="-rGbMX5MQ7BEVkvJqkTG-38" target="-rGbMX5MQ7BEVkvJqkTG-37">
          <mxGeometry width="160" relative="1" as="geometry">
            <mxPoint x="400" y="1029.71" as="sourcePoint" />
            <mxPoint x="520" y="1029.71" as="targetPoint" />
          </mxGeometry>
        </mxCell>
        <mxCell id="-rGbMX5MQ7BEVkvJqkTG-49" value="&lt;p data-pm-slice=&quot;1 1 [&amp;quot;list&amp;quot;,{&amp;quot;spread&amp;quot;:false,&amp;quot;start&amp;quot;:622,&amp;quot;end&amp;quot;:1026},&amp;quot;regular_list_item&amp;quot;,{&amp;quot;start&amp;quot;:622,&amp;quot;end&amp;quot;:664}]&quot;&gt;&lt;font style=&quot;font-size: 8px;&quot;&gt;Se connecter&lt;/font&gt;&lt;/p&gt;" style="ellipse;whiteSpace=wrap;html=1;" vertex="1" parent="1">
          <mxGeometry x="640" y="550" width="110" height="40" as="geometry" />
        </mxCell>
        <mxCell id="-rGbMX5MQ7BEVkvJqkTG-51" value="include" style="endArrow=open;endSize=12;dashed=1;html=1;rounded=0;exitX=0;exitY=0.5;exitDx=0;exitDy=0;entryX=1;entryY=0.5;entryDx=0;entryDy=0;" edge="1" parent="1" source="-rGbMX5MQ7BEVkvJqkTG-49" target="-rGbMX5MQ7BEVkvJqkTG-18">
          <mxGeometry width="160" relative="1" as="geometry">
            <mxPoint x="650" y="580" as="sourcePoint" />
            <mxPoint x="420" y="560" as="targetPoint" />
          </mxGeometry>
        </mxCell>
        <mxCell id="-rGbMX5MQ7BEVkvJqkTG-52" value="&lt;p data-pm-slice=&quot;1 1 [&amp;quot;list&amp;quot;,{&amp;quot;spread&amp;quot;:false,&amp;quot;start&amp;quot;:622,&amp;quot;end&amp;quot;:1026},&amp;quot;regular_list_item&amp;quot;,{&amp;quot;start&amp;quot;:622,&amp;quot;end&amp;quot;:664}]&quot;&gt;&lt;font style=&quot;font-size: 8px;&quot;&gt;Se connecter&lt;/font&gt;&lt;/p&gt;" style="ellipse;whiteSpace=wrap;html=1;" vertex="1" parent="1">
          <mxGeometry x="670" y="760" width="110" height="40" as="geometry" />
        </mxCell>
        <mxCell id="-rGbMX5MQ7BEVkvJqkTG-53" value="include" style="endArrow=open;endSize=12;dashed=1;html=1;rounded=0;exitX=0;exitY=0.5;exitDx=0;exitDy=0;entryX=1;entryY=0.5;entryDx=0;entryDy=0;" edge="1" parent="1" source="-rGbMX5MQ7BEVkvJqkTG-52" target="-rGbMX5MQ7BEVkvJqkTG-28">
          <mxGeometry width="160" relative="1" as="geometry">
            <mxPoint x="510" y="770" as="sourcePoint" />
            <mxPoint x="390" y="760" as="targetPoint" />
          </mxGeometry>
        </mxCell>
        <mxCell id="-rGbMX5MQ7BEVkvJqkTG-55" value="include" style="endArrow=open;endSize=12;dashed=1;html=1;rounded=0;exitX=0;exitY=0.5;exitDx=0;exitDy=0;entryX=1;entryY=0.5;entryDx=0;entryDy=0;" edge="1" parent="1" source="-rGbMX5MQ7BEVkvJqkTG-52" target="-rGbMX5MQ7BEVkvJqkTG-30">
          <mxGeometry width="160" relative="1" as="geometry">
            <mxPoint x="630" y="790" as="sourcePoint" />
            <mxPoint x="410" y="790" as="targetPoint" />
          </mxGeometry>
        </mxCell>
        <mxCell id="-rGbMX5MQ7BEVkvJqkTG-58" value="&lt;p data-pm-slice=&quot;1 1 [&amp;quot;list&amp;quot;,{&amp;quot;spread&amp;quot;:false,&amp;quot;start&amp;quot;:622,&amp;quot;end&amp;quot;:1026},&amp;quot;regular_list_item&amp;quot;,{&amp;quot;start&amp;quot;:622,&amp;quot;end&amp;quot;:664}]&quot;&gt;&lt;font style=&quot;font-size: 8px;&quot;&gt;Se connecter&lt;/font&gt;&lt;/p&gt;" style="ellipse;whiteSpace=wrap;html=1;" vertex="1" parent="1">
          <mxGeometry x="650" y="1070" width="110" height="40" as="geometry" />
        </mxCell>
        <mxCell id="-rGbMX5MQ7BEVkvJqkTG-59" value="include" style="endArrow=open;endSize=12;dashed=1;html=1;rounded=0;exitX=0;exitY=0.5;exitDx=0;exitDy=0;entryX=1;entryY=1;entryDx=0;entryDy=0;" edge="1" parent="1" source="-rGbMX5MQ7BEVkvJqkTG-58" target="-rGbMX5MQ7BEVkvJqkTG-37">
          <mxGeometry width="160" relative="1" as="geometry">
            <mxPoint x="510" y="1070" as="sourcePoint" />
            <mxPoint x="390" y="1060" as="targetPoint" />
          </mxGeometry>
        </mxCell>
        <mxCell id="-rGbMX5MQ7BEVkvJqkTG-60" value="include" style="endArrow=open;endSize=12;dashed=1;html=1;rounded=0;exitX=0;exitY=0.5;exitDx=0;exitDy=0;entryX=1;entryY=0.5;entryDx=0;entryDy=0;" edge="1" parent="1" source="-rGbMX5MQ7BEVkvJqkTG-58" target="-rGbMX5MQ7BEVkvJqkTG-44">
          <mxGeometry width="160" relative="1" as="geometry">
            <mxPoint x="630" y="1090" as="sourcePoint" />
            <mxPoint x="570" y="1120" as="targetPoint" />
          </mxGeometry>
        </mxCell>
        <mxCell id="-rGbMX5MQ7BEVkvJqkTG-61" value="include" style="endArrow=open;endSize=12;dashed=1;html=1;rounded=0;exitX=0;exitY=0.5;exitDx=0;exitDy=0;entryX=1;entryY=0.5;entryDx=0;entryDy=0;" edge="1" parent="1" source="-rGbMX5MQ7BEVkvJqkTG-58" target="-rGbMX5MQ7BEVkvJqkTG-39">
          <mxGeometry width="160" relative="1" as="geometry">
            <mxPoint x="630" y="1090" as="sourcePoint" />
            <mxPoint x="410" y="1100" as="targetPoint" />
          </mxGeometry>
        </mxCell>
        <mxCell id="-rGbMX5MQ7BEVkvJqkTG-62" value="&lt;p data-pm-slice=&quot;1 1 [&amp;quot;list&amp;quot;,{&amp;quot;spread&amp;quot;:false,&amp;quot;start&amp;quot;:622,&amp;quot;end&amp;quot;:1026},&amp;quot;regular_list_item&amp;quot;,{&amp;quot;start&amp;quot;:806,&amp;quot;end&amp;quot;:906}]&quot;&gt;&lt;font style=&quot;font-size: 8px;&quot;&gt;modifier&lt;/font&gt;&lt;/p&gt;" style="ellipse;whiteSpace=wrap;html=1;" vertex="1" parent="1">
          <mxGeometry x="390" y="780" width="110" height="40" as="geometry" />
        </mxCell>
        <mxCell id="-rGbMX5MQ7BEVkvJqkTG-63" value="&lt;p data-pm-slice=&quot;1 1 [&amp;quot;list&amp;quot;,{&amp;quot;spread&amp;quot;:false,&amp;quot;start&amp;quot;:622,&amp;quot;end&amp;quot;:1026},&amp;quot;regular_list_item&amp;quot;,{&amp;quot;start&amp;quot;:806,&amp;quot;end&amp;quot;:906}]&quot;&gt;&lt;font style=&quot;font-size: 8px;&quot;&gt;consulte&lt;/font&gt;&lt;/p&gt;" style="ellipse;whiteSpace=wrap;html=1;" vertex="1" parent="1">
          <mxGeometry x="310" y="830" width="110" height="40" as="geometry" />
        </mxCell>
        <mxCell id="-rGbMX5MQ7BEVkvJqkTG-64" value="&lt;p data-pm-slice=&quot;1 1 [&amp;quot;list&amp;quot;,{&amp;quot;spread&amp;quot;:false,&amp;quot;start&amp;quot;:622,&amp;quot;end&amp;quot;:1026},&amp;quot;regular_list_item&amp;quot;,{&amp;quot;start&amp;quot;:806,&amp;quot;end&amp;quot;:906}]&quot;&gt;&lt;font style=&quot;font-size: 8px;&quot;&gt;supprime&lt;/font&gt;&lt;/p&gt;" style="ellipse;whiteSpace=wrap;html=1;" vertex="1" parent="1">
          <mxGeometry x="225" y="780" width="110" height="40" as="geometry" />
        </mxCell>
        <mxCell id="-rGbMX5MQ7BEVkvJqkTG-68" value="include" style="endArrow=open;endSize=12;dashed=1;html=1;rounded=0;exitX=0;exitY=0.5;exitDx=0;exitDy=0;entryX=1;entryY=0.5;entryDx=0;entryDy=0;" edge="1" parent="1" source="-rGbMX5MQ7BEVkvJqkTG-52" target="-rGbMX5MQ7BEVkvJqkTG-29">
          <mxGeometry width="160" relative="1" as="geometry">
            <mxPoint x="680" y="790" as="sourcePoint" />
            <mxPoint x="430" y="940" as="targetPoint" />
          </mxGeometry>
        </mxCell>
        <mxCell id="-rGbMX5MQ7BEVkvJqkTG-72" value="&lt;h3 data-pm-slice=&quot;1 1 []&quot;&gt;&lt;span style=&quot;font-weight: normal;&quot;&gt;&lt;font style=&quot;font-size: 12px;&quot;&gt;user x&lt;/font&gt;&lt;/span&gt;&lt;/h3&gt;" style="shape=umlActor;verticalLabelPosition=bottom;verticalAlign=top;html=1;outlineConnect=0;" vertex="1" parent="1">
          <mxGeometry x="90" y="440" width="20" height="40" as="geometry" />
        </mxCell>
        <mxCell id="-rGbMX5MQ7BEVkvJqkTG-73" value="&lt;p data-pm-slice=&quot;1 1 [&amp;quot;list&amp;quot;,{&amp;quot;spread&amp;quot;:false,&amp;quot;start&amp;quot;:365,&amp;quot;end&amp;quot;:600},&amp;quot;regular_list_item&amp;quot;,{&amp;quot;start&amp;quot;:365,&amp;quot;end&amp;quot;:463}]&quot;&gt;&lt;font style=&quot;font-size: 8px;&quot;&gt;Consulter le catalogue des cours&amp;nbsp;&lt;/font&gt;&lt;/p&gt;" style="ellipse;whiteSpace=wrap;html=1;" vertex="1" parent="1">
          <mxGeometry x="290" y="390" width="110" height="40" as="geometry" />
        </mxCell>
        <mxCell id="-rGbMX5MQ7BEVkvJqkTG-74" value="&lt;p data-pm-slice=&quot;1 1 [&amp;quot;list&amp;quot;,{&amp;quot;spread&amp;quot;:false,&amp;quot;start&amp;quot;:365,&amp;quot;end&amp;quot;:600},&amp;quot;regular_list_item&amp;quot;,{&amp;quot;start&amp;quot;:464,&amp;quot;end&amp;quot;:530}]&quot;&gt;&lt;font style=&quot;font-size: 8px;&quot;&gt;Rechercher un cours&lt;/font&gt;&lt;/p&gt;" style="ellipse;whiteSpace=wrap;html=1;" vertex="1" parent="1">
          <mxGeometry x="290" y="480" width="110" height="40" as="geometry" />
        </mxCell>
        <mxCell id="-rGbMX5MQ7BEVkvJqkTG-77" value="" style="endArrow=none;html=1;rounded=0;exitX=0.5;exitY=0.5;exitDx=0;exitDy=0;exitPerimeter=0;entryX=0;entryY=0.5;entryDx=0;entryDy=0;" edge="1" parent="1" source="-rGbMX5MQ7BEVkvJqkTG-72" target="-rGbMX5MQ7BEVkvJqkTG-74">
          <mxGeometry width="50" height="50" relative="1" as="geometry">
            <mxPoint x="70" y="470" as="sourcePoint" />
            <mxPoint x="300" y="420" as="targetPoint" />
          </mxGeometry>
        </mxCell>
        <mxCell id="-rGbMX5MQ7BEVkvJqkTG-78" value="" style="endArrow=classic;html=1;rounded=0;exitX=0.5;exitY=0.5;exitDx=0;exitDy=0;exitPerimeter=0;entryX=0.5;entryY=0;entryDx=0;entryDy=0;entryPerimeter=0;" edge="1" parent="1" source="-rGbMX5MQ7BEVkvJqkTG-1" target="-rGbMX5MQ7BEVkvJqkTG-72">
          <mxGeometry width="50" height="50" relative="1" as="geometry">
            <mxPoint x="500" y="590" as="sourcePoint" />
            <mxPoint x="150" y="430" as="targetPoint" />
          </mxGeometry>
        </mxCell>
        <mxCell id="-rGbMX5MQ7BEVkvJqkTG-79" value="" style="endArrow=classic;html=1;rounded=0;exitX=0.5;exitY=0.5;exitDx=0;exitDy=0;exitPerimeter=0;" edge="1" parent="1" source="-rGbMX5MQ7BEVkvJqkTG-3" target="-rGbMX5MQ7BEVkvJqkTG-72">
          <mxGeometry width="50" height="50" relative="1" as="geometry">
            <mxPoint x="90" y="470" as="sourcePoint" />
            <mxPoint x="90" y="580" as="targetPoint" />
          </mxGeometry>
        </mxCell>
        <mxCell id="-rGbMX5MQ7BEVkvJqkTG-80" value="&lt;p data-pm-slice=&quot;1 1 [&amp;quot;list&amp;quot;,{&amp;quot;spread&amp;quot;:false,&amp;quot;start&amp;quot;:622,&amp;quot;end&amp;quot;:1026},&amp;quot;regular_list_item&amp;quot;,{&amp;quot;start&amp;quot;:907,&amp;quot;end&amp;quot;:956}]&quot;&gt;&lt;font style=&quot;font-size: 8px;&quot;&gt;supprime les cours&lt;/font&gt;&lt;/p&gt;" style="ellipse;whiteSpace=wrap;html=1;" vertex="1" parent="1">
          <mxGeometry x="230" y="1100" width="110" height="40" as="geometry" />
        </mxCell>
        <mxCell id="-rGbMX5MQ7BEVkvJqkTG-82" value="&lt;p data-pm-slice=&quot;1 1 [&amp;quot;list&amp;quot;,{&amp;quot;spread&amp;quot;:false,&amp;quot;start&amp;quot;:622,&amp;quot;end&amp;quot;:1026},&amp;quot;regular_list_item&amp;quot;,{&amp;quot;start&amp;quot;:907,&amp;quot;end&amp;quot;:956}]&quot;&gt;&lt;font style=&quot;font-size: 8px;&quot;&gt;ajouter les tags&lt;/font&gt;&lt;/p&gt;" style="ellipse;whiteSpace=wrap;html=1;" vertex="1" parent="1">
          <mxGeometry x="320" y="1140" width="110" height="40" as="geometry" />
        </mxCell>
        <mxCell id="-rGbMX5MQ7BEVkvJqkTG-83" value="&lt;p data-pm-slice=&quot;1 1 [&amp;quot;list&amp;quot;,{&amp;quot;spread&amp;quot;:false,&amp;quot;start&amp;quot;:622,&amp;quot;end&amp;quot;:1026},&amp;quot;regular_list_item&amp;quot;,{&amp;quot;start&amp;quot;:907,&amp;quot;end&amp;quot;:956}]&quot;&gt;&lt;font style=&quot;font-size: 8px;&quot;&gt;suprime les tages&lt;/font&gt;&lt;/p&gt;" style="ellipse;whiteSpace=wrap;html=1;" vertex="1" parent="1">
          <mxGeometry x="400" y="1100" width="110" height="40" as="geometry" />
        </mxCell>
        <mxCell id="-rGbMX5MQ7BEVkvJqkTG-87" value="" style="endArrow=classic;html=1;rounded=0;exitX=0.5;exitY=0;exitDx=0;exitDy=0;entryX=0;entryY=1;entryDx=0;entryDy=0;" edge="1" parent="1" source="-rGbMX5MQ7BEVkvJqkTG-64" target="-rGbMX5MQ7BEVkvJqkTG-29">
          <mxGeometry width="50" height="50" relative="1" as="geometry">
            <mxPoint x="250" y="830" as="sourcePoint" />
            <mxPoint x="300" y="780" as="targetPoint" />
          </mxGeometry>
        </mxCell>
        <mxCell id="-rGbMX5MQ7BEVkvJqkTG-88" value="" style="endArrow=classic;html=1;rounded=0;exitX=0.5;exitY=0;exitDx=0;exitDy=0;entryX=0.5;entryY=1;entryDx=0;entryDy=0;" edge="1" parent="1" source="-rGbMX5MQ7BEVkvJqkTG-63" target="-rGbMX5MQ7BEVkvJqkTG-29">
          <mxGeometry width="50" height="50" relative="1" as="geometry">
            <mxPoint x="290" y="790" as="sourcePoint" />
            <mxPoint x="336" y="749" as="targetPoint" />
          </mxGeometry>
        </mxCell>
        <mxCell id="-rGbMX5MQ7BEVkvJqkTG-89" value="" style="endArrow=classic;html=1;rounded=0;exitX=0.5;exitY=0;exitDx=0;exitDy=0;entryX=1;entryY=1;entryDx=0;entryDy=0;" edge="1" parent="1" source="-rGbMX5MQ7BEVkvJqkTG-62" target="-rGbMX5MQ7BEVkvJqkTG-29">
          <mxGeometry width="50" height="50" relative="1" as="geometry">
            <mxPoint x="375" y="840" as="sourcePoint" />
            <mxPoint x="375" y="755" as="targetPoint" />
          </mxGeometry>
        </mxCell>
        <mxCell id="-rGbMX5MQ7BEVkvJqkTG-90" value="" style="endArrow=classic;html=1;rounded=0;exitX=0.5;exitY=0;exitDx=0;exitDy=0;entryX=0.5;entryY=1;entryDx=0;entryDy=0;" edge="1" parent="1" source="-rGbMX5MQ7BEVkvJqkTG-82" target="-rGbMX5MQ7BEVkvJqkTG-44">
          <mxGeometry width="50" height="50" relative="1" as="geometry">
            <mxPoint x="374.66" y="1140" as="sourcePoint" />
            <mxPoint x="374.66" y="1055" as="targetPoint" />
          </mxGeometry>
        </mxCell>
        <mxCell id="-rGbMX5MQ7BEVkvJqkTG-91" value="" style="endArrow=classic;html=1;rounded=0;exitX=0.5;exitY=0;exitDx=0;exitDy=0;entryX=0;entryY=1;entryDx=0;entryDy=0;" edge="1" parent="1" source="-rGbMX5MQ7BEVkvJqkTG-80" target="-rGbMX5MQ7BEVkvJqkTG-44">
          <mxGeometry width="50" height="50" relative="1" as="geometry">
            <mxPoint x="385" y="1150" as="sourcePoint" />
            <mxPoint x="385" y="1080" as="targetPoint" />
          </mxGeometry>
        </mxCell>
        <mxCell id="-rGbMX5MQ7BEVkvJqkTG-92" value="" style="endArrow=classic;html=1;rounded=0;exitX=0.5;exitY=0;exitDx=0;exitDy=0;entryX=1;entryY=1;entryDx=0;entryDy=0;" edge="1" parent="1" source="-rGbMX5MQ7BEVkvJqkTG-83" target="-rGbMX5MQ7BEVkvJqkTG-44">
          <mxGeometry width="50" height="50" relative="1" as="geometry">
            <mxPoint x="295" y="1110" as="sourcePoint" />
            <mxPoint x="346" y="1074" as="targetPoint" />
          </mxGeometry>
        </mxCell>
      </root>
    </mxGraphModel>
  </diagram>
</mxfile>
